<svg width="71" height="71" viewBox="0 0 71 71" fill="none" xmlns="http://www.w3.org/2000/svg">
<path d="M37.6719 37.5835H37.1719V38.0835V55.5835V56.0835H37.6719H48.9201H49.3074L49.4042 55.7085C49.9062 53.7643 51.1 52.0699 52.762 50.9429C54.4239 49.8159 56.4398 49.3338 58.4317 49.5868C60.4237 49.8398 62.2551 50.8106 63.5825 52.3173C64.9099 53.824 65.6422 55.763 65.6422 57.771C65.6422 59.779 64.9099 61.7181 63.5825 63.2247C62.2551 64.7314 60.4237 65.7022 58.4317 65.9553C56.4398 66.2083 54.4239 65.7261 52.762 64.5991C51.1 63.4722 49.9062 61.7778 49.4042 59.8335L49.3074 59.4585H48.9201H37.6724C36.6449 59.4575 35.6598 59.0489 34.9332 58.3223C34.2066 57.5957 33.798 56.6106 33.7969 55.583V38.0835V37.5835H33.2969H22.0488H21.6615L21.5647 37.9585C21.0627 39.9028 19.8688 41.5972 18.2069 42.7241C16.545 43.8511 14.5291 44.3333 12.5371 44.0803C10.5451 43.8272 8.7138 42.8564 7.3864 41.3497C6.059 39.8431 5.32666 37.904 5.32666 35.896C5.32666 33.888 6.059 31.949 7.3864 30.4423C8.7138 28.9356 10.5451 27.9648 12.5371 27.7118C14.5291 27.4588 16.545 27.9409 18.2069 29.0679C19.8688 30.1949 21.0627 31.8893 21.5647 33.8335L21.6615 34.2085H22.0488H33.2969H33.7969V33.7085V16.209C33.798 15.1815 34.2066 14.1963 34.9332 13.4698C35.6596 12.7433 36.6446 12.3347 37.6719 12.3335C37.6721 12.3335 37.6723 12.3335 37.6724 12.3335L48.9201 12.3335H49.3074L49.4042 11.9585C49.9062 10.0143 51.1 8.31988 52.762 7.1929C54.4239 6.06593 56.4398 5.58376 58.4317 5.83677C60.4237 6.08979 62.2551 7.06062 63.5825 8.56729C64.9099 10.074 65.6422 12.013 65.6422 14.021C65.6422 16.029 64.9099 17.9681 63.5825 19.4747C62.2551 20.9814 60.4237 21.9522 58.4317 22.2053C56.4398 22.4583 54.4239 21.9761 52.762 20.8491C51.1 19.7222 49.9062 18.0278 49.4042 16.0835L49.3074 15.7085H48.9201H37.6719H37.1719V16.2085V33.7085V34.2085H37.6719H48.9201H49.3074L49.4042 33.8335C49.9062 31.8893 51.1 30.1949 52.762 29.0679C54.4239 27.9409 56.4398 27.4588 58.4317 27.7118C60.4237 27.9648 62.2551 28.9356 63.5825 30.4423C64.9099 31.949 65.6422 33.888 65.6422 35.896C65.6422 37.904 64.9099 39.8431 63.5825 41.3497C62.2551 42.8564 60.4237 43.8272 58.4317 44.0803C56.4398 44.3333 54.4239 43.8511 52.762 42.7241C51.1 41.5972 49.9062 39.9028 49.4042 37.9585L49.3074 37.5835H48.9201H37.6719ZM57.3594 31.021H57.3589C56.0665 31.0223 54.8274 31.5363 53.9136 32.4502C52.9997 33.364 52.4857 34.6031 52.4844 35.8955V35.896C52.4844 36.8602 52.7704 37.8027 53.306 38.6044C53.8417 39.4061 54.6031 40.031 55.4939 40.3999C56.3846 40.7689 57.3648 40.8655 58.3105 40.6773C59.2562 40.4892 60.1248 40.0249 60.8066 39.3432C61.4884 38.6614 61.9527 37.7927 62.1408 36.8471C62.3289 35.9014 62.2323 34.9212 61.8634 34.0304C61.4944 33.1396 60.8695 32.3783 60.0678 31.8426C59.2662 31.3069 58.3236 31.021 57.3594 31.021ZM57.3594 9.14602L57.3589 9.14602C56.0665 9.14731 54.8274 9.66129 53.9136 10.5752C52.9997 11.489 52.4857 12.7281 52.4844 14.0205V14.021C52.4844 14.9852 52.7704 15.9277 53.306 16.7294C53.8417 17.5311 54.6031 18.156 55.4939 18.5249C56.3846 18.8939 57.3648 18.9904 58.3105 18.8023C59.2562 18.6142 60.1248 18.1499 60.8066 17.4682C61.4884 16.7864 61.9527 15.9177 62.1408 14.9721C62.3289 14.0264 62.2323 13.0462 61.8634 12.1554C61.4944 11.2646 60.8695 10.5033 60.0678 9.9676C59.2662 9.43193 58.3236 9.14602 57.3594 9.14602ZM13.6094 40.771H13.6099C14.9023 40.7697 16.1414 40.2558 17.0553 39.3419C17.9692 38.428 18.4831 37.1889 18.4844 35.8965V35.896C18.4844 34.9318 18.1985 33.9893 17.6629 33.1876C17.1272 32.3859 16.3658 31.7611 15.475 31.3921C14.5842 31.0231 13.604 30.9266 12.6584 31.1147C11.7127 31.3028 10.8441 31.7671 10.1623 32.4489C9.48051 33.1307 9.01621 33.9993 8.82811 34.945C8.64 35.8906 8.73655 36.8708 9.10552 37.7616C9.4745 38.6524 10.0993 39.4138 10.901 39.9494C11.7027 40.4851 12.6453 40.771 13.6094 40.771ZM57.3594 52.896H57.3589C56.0665 52.8973 54.8274 53.4113 53.9136 54.3251C52.9997 55.239 52.4857 56.4781 52.4844 57.7705V57.771C52.4844 58.7352 52.7704 59.6777 53.306 60.4794C53.8417 61.2811 54.6031 61.906 55.4939 62.2749C56.3846 62.6439 57.3648 62.7405 58.3105 62.5523C59.2562 62.3642 60.1248 61.8999 60.8066 61.2182C61.4884 60.5364 61.9527 59.6677 62.1408 58.7221C62.3289 57.7764 62.2323 56.7962 61.8634 55.9054C61.4944 55.0146 60.8695 54.2533 60.0678 53.7176C59.2662 53.1819 58.3236 52.896 57.3594 52.896Z" fill="white" stroke="#372C2B"/>
</svg>
