<svg width="73" height="73" viewBox="0 0 73 73" fill="none" xmlns="http://www.w3.org/2000/svg">
<g clipPath="url(#clip0_450_2572)">
<path d="M37.7933 5.43442L38.8172 5.49297C48.1958 6.02928 56.4541 10.6539 61.8537 17.6147L62.5001 18.448L61.4458 18.421C60.0499 18.3851 58.6609 18.3765 57.278 18.3973C54.8766 18.4371 52.4775 18.5642 50.0854 18.7784L49.7415 18.8092L49.5909 18.4984C49.1897 17.6704 48.5635 16.972 47.7839 16.4832C47.0044 15.9945 46.1031 15.7352 45.1831 15.7348L37.7933 5.43442ZM37.7933 5.43442L38.3779 6.27713M37.7933 5.43442L38.3779 6.27713M38.3779 6.27713C40.4341 9.24161 42.3082 12.3284 43.9897 15.5204L44.1535 15.8314M38.3779 6.27713L44.1535 15.8314M44.1535 15.8314L44.5016 15.7825M44.1535 15.8314L44.5016 15.7825M44.5016 15.7825C44.7273 15.7508 44.9549 15.7348 45.1828 15.7348L44.5016 15.7825ZM59.3875 20.9866C56.3607 20.967 53.3665 21.0908 50.4001 21.3484L50.0378 21.3799L49.9561 21.7343C49.718 22.7673 49.1513 23.6953 48.3411 24.379L48.0723 24.6058L48.1949 24.9354C49.1815 27.5882 50.0214 30.2933 50.7108 33.0383L50.7958 33.3769L51.1429 33.4138C51.783 33.4817 52.4035 33.6752 52.9688 33.983C53.5341 34.2908 54.0333 34.707 54.4377 35.2078L54.6486 35.469L54.9702 35.3726C59.0781 34.1418 63.2978 33.1654 67.6322 32.4604L68.1242 32.3804L68.0457 31.8882C67.4565 28.1919 66.2081 24.6315 64.3601 21.3765L64.2249 21.1383L63.9513 21.124C62.4234 21.0445 60.9023 20.996 59.3875 20.9866ZM59.3875 20.9866L59.3843 21.4866L59.3874 20.9866C59.3874 20.9866 59.3875 20.9866 59.3875 20.9866ZM36.9838 68.356C41.1138 68.3607 45.2042 67.5517 49.0214 65.9753L49.2793 65.8687L49.3241 65.5933C50.5489 58.0544 50.7916 50.6958 49.9986 43.5126L49.9589 43.1538L49.6059 43.0785C48.514 42.8456 47.5344 42.2468 46.8292 41.3812L46.5934 41.0917L46.2489 41.2356C39.6075 44.0084 33.287 47.5195 27.263 51.7315L26.9815 51.9283L27.0642 52.2617C28.3862 57.591 30.4897 62.8217 33.3996 67.9452L33.5272 68.1699L33.7842 68.1958C34.8361 68.3019 35.9039 68.356 36.9838 68.356ZM36.9838 68.356L36.9844 67.856M36.9838 68.356C36.984 68.356 36.9842 68.356 36.9844 68.356V67.856M36.9844 67.856C35.9209 67.856 34.8697 67.8027 33.8344 67.6983C30.9457 62.6122 28.8599 57.4239 27.5495 52.1413C33.5457 47.9487 39.8349 44.4553 46.4416 41.697C47.2187 42.6509 48.2983 43.3108 49.5016 43.5675C50.2893 50.702 50.0488 58.015 48.8305 65.5131C45.074 67.0645 41.0486 67.8606 36.9844 67.856ZM34.816 5.75444L34.6494 5.52686L34.3685 5.5517C34.3215 5.55585 34.2736 5.55912 34.2196 5.56278L34.2174 5.56293C34.1657 5.56643 34.1083 5.57033 34.0503 5.57546L33.769 5.60033L33.6451 5.85398C31.2032 10.8505 29.291 15.7921 27.9234 20.6734L27.8219 21.0355L28.1417 21.2334C28.6704 21.5608 29.1321 21.9859 29.5019 22.4859L29.7114 22.7692L30.0487 22.6671C33.3079 21.6811 36.6149 20.861 39.9571 20.2097L40.2958 20.1437L40.3543 19.8037C40.5168 18.8589 40.953 17.9826 41.6087 17.2832L41.8524 17.0231L41.6861 16.7079C39.7318 13.0035 37.4486 9.35118 34.816 5.75444ZM30.2304 6.99358L30.6567 6.06176L29.6599 6.29921C22.0316 8.11636 15.3583 12.7197 10.9504 19.2053L10.5392 19.8103L11.2521 19.9737C14.5622 20.7328 17.8391 21.6294 21.0745 22.6613L21.4151 22.7699L21.628 22.4829C22.025 21.9477 22.527 21.4992 23.1033 21.1646C23.6796 20.8301 24.318 20.6166 24.9796 20.5372L25.3133 20.4972L25.4022 20.1731C26.5999 15.8066 28.2104 11.4096 30.2304 6.99358ZM9.5389 22.2669L9.16264 22.1841L8.98664 22.5268C7.40333 25.6098 6.34375 28.9346 5.85129 32.3653L5.70553 33.3806L6.59515 32.8699C11.1073 30.2797 15.695 28.02 20.3595 26.1042L20.6814 25.9719L20.6692 25.6241L20.6685 25.6045L20.6575 25.2512L20.3208 25.1438C16.8247 24.0276 13.2255 23.0783 9.5389 22.2669ZM40.8966 23.0057L40.7205 22.6873L40.3634 22.7569C37.1431 23.385 33.9572 24.1749 30.8163 25.1234L30.4746 25.2266L30.4612 25.5833C30.4591 25.6391 30.4561 25.6949 30.4521 25.7506L30.4264 26.1073L30.7557 26.2468C36.3089 28.5996 41.643 31.4392 46.6956 34.7322L47.0208 34.9442L47.3068 34.6817C47.5208 34.4851 47.7519 34.308 47.9973 34.1525L48.3031 33.9587L48.2144 33.6077C47.5512 30.9813 46.7438 28.3933 45.7961 25.8556L45.6697 25.517L45.3086 25.5308C45.2656 25.5325 45.2226 25.5336 45.1796 25.5341C44.3055 25.5332 43.4476 25.2986 42.6947 24.8544C41.941 24.4098 41.3202 23.7714 40.8966 23.0057ZM21.8849 28.635L21.6491 28.3668L21.3189 28.5029C16.0439 30.6767 10.8635 33.3069 5.76975 36.3673L5.52726 36.513V36.7959C5.52726 36.8002 5.52708 36.806 5.52629 36.8242L5.52618 36.8266C5.52551 36.842 5.52438 36.868 5.52438 36.896C5.52438 45.2111 8.73809 52.7558 13.988 58.3737L14.322 58.7311L14.6867 58.405C17.62 55.7812 20.6805 53.3033 23.8573 50.9803L24.1157 50.7914L24.0522 50.4776C22.7101 43.8389 22.5144 37.0496 23.395 30.159L23.4375 29.8263L23.1458 29.6608C22.6714 29.3914 22.2452 29.0448 21.8849 28.635ZM29.7104 28.6198L29.3882 28.4837L29.1498 28.7397C28.3973 29.5481 27.3938 30.0785 26.302 30.245L25.9289 30.3019L25.8813 30.6763C25.1172 36.6951 25.2256 42.6152 26.25 48.4258L26.384 49.1862L27.0231 48.7527C32.8701 44.7864 38.9993 41.4511 45.4182 38.7826L45.7272 38.6541L45.7262 38.3194V38.2886L45.7262 38.2881C45.7267 38.0497 45.7446 37.8117 45.7798 37.576L45.8269 37.2598L45.5598 37.0843C40.5436 33.7891 35.2388 30.956 29.7104 28.6198ZM68.4101 35.535L68.3863 34.9706L67.9444 36.896H68.4444C68.4444 36.8958 68.4444 36.8956 68.4444 36.8955C68.4444 36.4358 68.4289 35.9813 68.4101 35.535ZM53.3677 42.7925L52.4196 42.02L52.555 43.2355C53.2918 49.851 53.1813 56.6083 52.2611 63.4841L52.1244 64.5055L53.0113 63.9807C57.456 61.3507 61.1863 57.6689 63.8742 53.259L64.0696 52.9384L63.8162 52.6614C60.5788 49.1213 57.0867 45.8229 53.3677 42.7925ZM24.9434 54.2502L24.7509 53.5366L24.1601 53.9809C21.5976 55.9084 19.0894 57.9691 16.634 60.152L16.2039 60.5344L16.6426 60.9068C20.2801 63.9954 24.575 66.2121 29.1996 67.388L30.2729 67.6609L29.7678 66.6754C27.6817 62.6046 26.0789 58.4584 24.9434 54.2502ZM1.48438 36.896C1.48438 17.3196 17.408 1.396 36.9844 1.396C56.5608 1.396 72.4844 17.3196 72.4844 36.896C72.4844 56.4724 56.5608 72.396 36.9844 72.396C17.408 72.396 1.48438 56.4724 1.48438 36.896Z" fill="white" stroke="#211515"/>
</g>
<defs>
<clipPath id="clip0_450_2572">
<rect width="72" height="72" fill="white" transform="translate(0.984375 0.895996)"/>
</clipPath>
</defs>
</svg>
