<svg width="70" height="71" viewBox="0 0 70 71" fill="none" xmlns="http://www.w3.org/2000/svg">
<path d="M27.4167 6.35437H10.5C9.5335 6.35437 8.75 7.13787 8.75 8.10437V19.1877C8.75 20.1542 9.5335 20.9377 10.5 20.9377H27.4167C28.3832 20.9377 29.1667 20.1542 29.1667 19.1877V8.10437C29.1667 7.13787 28.3832 6.35437 27.4167 6.35437Z" stroke="white" stroke-width="2.5"/>
<path d="M43.4583 50.1044H26.5416C25.5751 50.1044 24.7916 50.8879 24.7916 51.8544V62.9377C24.7916 63.9042 25.5751 64.6877 26.5416 64.6877H43.4583C44.4248 64.6877 45.2083 63.9042 45.2083 62.9377V51.8544C45.2083 50.8879 44.4248 50.1044 43.4583 50.1044Z" stroke="white" stroke-width="2.5"/>
<path d="M59.4999 6.35437H42.5833C41.6168 6.35437 40.8333 7.13787 40.8333 8.10437V19.1877C40.8333 20.1542 41.6168 20.9377 42.5833 20.9377H59.4999C60.4664 20.9377 61.2499 20.1542 61.2499 19.1877V8.10437C61.2499 7.13787 60.4664 6.35437 59.4999 6.35437Z" stroke="white" stroke-width="2.5"/>
<path d="M18.9584 20.9377V31.146C18.9584 32.6931 19.573 34.1768 20.6669 35.2708C21.7609 36.3648 23.2446 36.9793 24.7917 36.9793H45.2084C46.7555 36.9793 48.2392 36.3648 49.3332 35.2708C50.4271 34.1768 51.0417 32.6931 51.0417 31.146V20.9377M35 36.9793V50.1043" stroke="white" stroke-width="2.5"/>
</svg>
