<svg width="74" height="68" viewBox="0 0 74 68" fill="none" xmlns="http://www.w3.org/2000/svg">
<path fill-rule="evenodd" clip-rule="evenodd" d="M68.6127 36.6703C66.8167 43.0703 65.9107 49.7709 65.0807 56.2709C64.9067 57.6709 65.8777 58.9707 67.2457 59.0707C68.6147 59.2707 69.8667 58.2701 70.0407 56.9701C70.8397 50.6701 71.6947 44.1707 73.4237 38.0707C73.7987 36.7707 73.0267 35.3701 71.6987 34.9701C70.3717 34.5701 68.9887 35.3703 68.6127 36.6703Z" fill="#F2994A"/>
<path fill-rule="evenodd" clip-rule="evenodd" d="M43.1489 25.2711C32.6379 35.5711 23.4799 47.1711 12.6869 57.2711C11.6789 58.1711 11.6249 59.7711 12.5659 60.7711C13.5079 61.7711 15.0919 61.8707 16.0999 60.8707C26.9239 50.7707 36.1119 39.1707 46.6539 28.8707C47.6379 27.8707 47.6519 26.2711 46.6839 25.2711C45.7169 24.3711 44.1329 24.2711 43.1489 25.2711Z" fill="#F2994A"/>
<path fill-rule="evenodd" clip-rule="evenodd" d="M10.7197 5.97073C16.7357 5.67073 22.7517 5.37131 28.7687 5.07131C30.1467 5.07131 31.2107 3.87072 31.1437 2.47072C31.0757 1.07072 29.9027 0.0713105 28.5237 0.0713106C22.4977 0.371311 16.4727 0.670725 10.4477 0.970725C9.06974 1.07073 8.01274 2.27092 8.08774 3.67092C8.16274 4.97092 9.34274 6.07073 10.7197 5.97073Z" fill="#F2994A"/>
</svg>
