<svg width="120" height="104" viewBox="0 0 120 104" fill="none" xmlns="http://www.w3.org/2000/svg">
<path fill-rule="evenodd" clip-rule="evenodd" d="M12.0457 82.4885C12.8161 83.092 13.1777 83.9663 13.3326 84.9492C13.4179 85.4914 13.9129 85.5656 14.2853 85.6608C14.6075 85.7437 14.9049 85.7545 15.1655 86.0204C15.2732 86.1306 15.6095 86.1546 15.7507 86.0684C16.2026 85.793 16.6864 85.5917 17.1035 85.2243C18.5723 83.932 19.6488 82.3336 20.6565 80.7029C21.6846 79.039 22.7607 77.393 23.5481 75.5883C23.7929 75.0266 23.8028 75.0312 23.1865 74.595C22.6853 75.5481 22.2181 76.5157 21.6771 77.4402C21.248 78.1737 20.729 78.8539 20.2063 79.6214C20.0833 79.3124 20.0862 79.1144 20.2771 78.839C21.3168 77.3371 22.3038 75.8012 23.0866 74.0425C22.9616 73.9609 22.8104 73.8619 22.66 73.7642C22.6252 73.794 22.5478 73.8611 22.4152 73.9758V73.3495C22.0437 73.2754 21.7069 73.2087 21.2687 73.1217C20.927 73.2812 20.7646 73.8859 20.2022 73.9609C20.2204 74.5727 19.6856 74.8775 19.4168 75.3245C19.0834 75.8787 18.6315 76.3612 18.3117 76.7708C17.9506 76.7228 17.6805 76.6723 17.4079 76.6532C16.4511 76.5861 16.4743 76.6163 15.8783 77.142C15.216 77.726 14.7629 78.5432 13.9088 78.9143C13.8537 78.9379 13.7924 79.0216 13.7895 79.08C13.763 79.6947 13.4188 79.9179 12.8418 80.0671C12.3576 80.1926 12.2201 80.7029 12.1973 81.2049C12.1799 81.5897 12.1091 81.972 12.0457 82.4885Z" fill="black"/>
<path fill-rule="evenodd" clip-rule="evenodd" d="M97.4612 11.0963C96.7761 11.4392 96.7761 11.4392 96.4075 10.7214C95.939 10.5607 95.3728 10.8842 94.9491 10.4539C94.4723 10.5727 94.0018 10.7343 93.518 10.801C92.7368 10.9082 92.3334 11.5126 91.8922 12.0212C91.5928 12.3666 91.2792 12.7133 91.0054 13.0886C90.6853 13.5276 90.3025 13.9203 89.9811 14.3581C89.6899 14.7549 89.441 15.1836 89.1825 15.6036C89.1109 15.7204 89.0189 15.8625 89.0293 15.9851C89.057 16.3115 88.944 16.5314 88.712 16.7655C88.2659 17.2153 88.3007 17.8755 88.1458 18.4372C88.0021 18.9607 88.0845 19.5576 88.1309 20.1172C88.1483 20.3309 88.1765 20.7869 88.647 20.4506C88.6801 20.4266 88.8446 20.6018 88.9576 20.6681C89.0769 20.7376 89.2807 20.8706 89.323 20.8337C89.8192 20.398 89.9401 20.7095 90.1671 21.1402C90.5009 21.7744 90.7047 21.7276 91.6011 21.5677C92.1466 21.47 92.7248 21.453 93.0441 20.9795C93.9078 19.6997 94.7925 18.4285 94.9122 16.7924C94.9598 16.1367 95.1429 15.4524 95.6838 14.9811C96.1498 14.5747 96.4592 13.994 97.0954 13.7675C97.2872 13.6991 97.4276 13.4705 97.5767 13.3019C97.8936 12.9424 98.0638 12.5427 98.0721 12.0369C98.0808 11.5117 97.6658 11.3941 97.4612 11.0963Z" fill="black"/>
<path fill-rule="evenodd" clip-rule="evenodd" d="M24.2472 53.8754C24.8064 53.3163 25.2757 52.7687 25.8229 52.3147C27.3923 51.0125 28.1374 49.1701 29.076 47.4553C29.4977 46.6853 29.3771 45.8205 29.3589 44.9875C29.3556 44.8429 29.1559 44.7025 29.0391 44.5509C28.8797 44.8665 28.7301 45.1623 28.5119 45.5939V44.0518C28.1834 43.889 27.8591 43.8004 27.6379 43.5991C27.3633 43.3493 27.053 43.3986 26.8012 43.462C26.508 43.5357 26.2578 43.7805 25.9629 43.9677C26.1356 44.7771 25.8171 45.4547 25.4223 46.1609C25.069 46.0652 24.6519 46.3163 24.2982 45.9534C24.2232 45.8764 23.9772 45.8702 23.8711 45.9339C23.0046 46.4554 21.9414 46.7321 21.5032 47.8024C21.4245 47.9954 21.3371 48.2448 21.1788 48.3305C20.9403 48.4597 21.1544 48.8632 20.7448 48.8789C20.4076 48.8918 20.623 49.2355 20.5625 49.4228C20.4875 49.6547 20.3852 49.8817 20.3446 50.1194C20.3074 50.3373 20.3368 50.5668 20.3368 50.7929C21.2041 51.5368 21.7616 52.4845 22.1891 53.5403C22.8829 53.653 23.587 53.7677 24.2472 53.8754Z" fill="black"/>
<path fill-rule="evenodd" clip-rule="evenodd" d="M118.327 1.2114C118.121 0.930985 117.961 0.697375 117.783 0.47702C117.718 0.397079 117.618 0.340748 117.524 0.288559C117.259 0.13986 117.069 0.560275 116.772 0.377198C116.539 0.233884 116.267 0.105068 116.001 0.0793871C115.781 0.0582629 115.454 0.323766 115.336 0.23844C115.072 0.048322 114.914 -0.00883773 114.685 0.248381C114.642 0.2956 114.486 0.259979 114.389 0.236369C113.669 0.0628191 113.669 0.060748 113.284 0.760334C113.231 0.608736 113.186 0.477849 113.103 0.238855C112.989 0.54702 112.877 0.766133 112.83 0.998085C112.772 1.2814 112.758 1.57507 112.745 1.86501C112.731 2.15661 112.742 2.44945 112.578 2.74974L112.469 1.66371C112.43 1.66205 112.391 1.66039 112.352 1.65915C112.331 1.85134 112.294 2.04353 112.293 2.23613C112.286 3.21282 112.332 4.19199 112.277 5.16536C112.228 6.024 112.375 6.80146 112.86 7.5114C113.042 7.33743 113.214 7.07359 113.421 7.49442C113.648 7.95418 114.01 7.91939 114.479 7.70856C114.557 8.2085 114.592 8.79791 115.42 8.60945V7.35732C115.475 7.34655 115.531 7.33536 115.586 7.32418C115.717 7.75122 115.848 8.17826 115.983 8.61773C116.353 8.37004 116.656 8.10661 116.596 7.58554C116.58 7.43933 116.75 7.27945 116.805 7.11625C117.044 6.40631 117.04 6.40465 117.629 6.38767C117.742 6.38436 117.855 6.38726 117.967 6.38726H118.277C118.562 6.10146 118.82 5.82684 119.096 5.57169C119.682 5.02951 119.869 4.31169 119.963 3.56572C120.01 3.19584 119.93 2.80939 119.982 2.44116C120.04 2.03525 119.831 1.73536 119.646 1.44956C119.278 0.880038 119.077 0.86347 118.327 1.2114Z" fill="black"/>
<path fill-rule="evenodd" clip-rule="evenodd" d="M52.452 10.1517C52.9337 10.479 53.3976 10.807 53.881 11.1023C53.9278 11.1309 54.0959 10.9607 54.2773 10.8339C54.3884 11.0332 54.4637 11.2158 54.5814 11.3649C54.7197 11.541 54.8974 11.6859 55.0544 11.8479C55.3725 12.1755 55.679 12.5404 56.1491 12.0426C56.1852 12.0049 56.2945 12.0421 56.3686 12.0343C56.8968 11.9771 57.4 12.1088 57.9314 11.6839C58.3593 11.3417 58.904 11.1052 59.3062 10.6852C59.6831 10.2909 60.0733 9.92061 60.3363 9.42025C60.7397 8.65191 61.1382 7.89226 60.9944 6.99055C60.9584 6.76439 60.8031 6.55688 60.6627 6.2541C60.3785 6.48688 60.1863 6.64428 59.9618 6.8286C59.7779 6.21848 59.8156 5.50936 59.2502 4.97173C59.0286 5.13741 58.8145 5.29729 58.5473 5.49694V4.67309C57.8051 4.54635 57.1308 4.2912 56.3869 4.33593C55.9602 4.36161 55.5916 4.49664 55.3215 4.75552C54.9744 5.08771 54.5495 5.32546 54.2662 5.75126C54.0102 6.13647 53.6602 6.45871 53.3914 6.85552C52.9502 7.50789 52.8011 8.27043 52.4785 8.96463C52.3244 9.29558 52.452 9.75783 52.452 10.1517Z" fill="black"/>
<path fill-rule="evenodd" clip-rule="evenodd" d="M100.291 31.7468V34.1707C100.067 33.5581 100.105 32.9393 100.086 32.3238C100.079 32.0761 100.196 31.7679 99.8959 31.6201C99.5856 31.4668 99.258 31.3152 98.9233 31.2659C98.8082 31.2489 98.5891 31.5215 98.5236 31.7C98.4532 31.8918 98.5075 32.1291 98.5075 32.371C98.3203 32.2927 98.2088 32.202 98.109 32.2132C97.9027 32.2364 97.6194 32.4273 97.5138 32.3503C96.9269 31.9183 96.2836 32.202 95.6768 32.1681C95.4022 32.1527 94.9868 32.3362 94.855 32.5591C94.532 33.1079 93.88 33.2756 93.5383 33.9214C93.5271 34.1972 93.4907 34.5381 93.204 34.9051C92.8284 35.386 92.5078 35.9833 92.6242 36.687C92.6784 37.0142 92.6337 37.3576 92.6337 37.7565C93.4037 38.2133 94.2048 38.6573 94.9727 39.1527C95.7762 39.6713 96.5073 39.323 97.1911 38.9647C97.6903 38.7029 98.36 38.5803 98.5286 37.8832C99.6445 37.3812 99.8429 36.2053 100.438 35.3168C100.839 34.7195 100.827 34.0245 100.94 33.3924C101.034 32.8701 100.665 32.265 100.501 31.6967C100.431 31.7133 100.361 31.7302 100.291 31.7468Z" fill="black"/>
<path fill-rule="evenodd" clip-rule="evenodd" d="M78.4345 43.9697C78.91 43.4942 79.414 42.9901 79.9815 42.4227C79.9815 42.047 80.0204 41.5992 79.9616 41.1647C79.9393 41.0032 79.7061 40.84 79.5325 40.7451C79.4667 40.7087 79.2972 40.862 79.1738 40.9295C79.0098 40.6047 78.9137 40.1653 78.3591 40.2721C78.2559 40.2924 78.1097 40.2986 78.0393 40.2419C77.763 40.0182 77.4623 39.79 77.109 39.8882C76.4757 40.0646 75.7699 40.1678 75.2762 40.6047C74.3003 41.4692 73.3725 42.4086 72.8867 43.657C72.5971 44.4013 72.3358 45.1701 72.1958 45.9521C72.1349 46.2942 72.2272 46.7639 72.617 47.0365C73.2586 47.4859 73.8762 47.9713 74.5319 48.3988C74.7551 48.5441 75.0699 48.6448 75.3304 48.622C76.9719 48.4799 78.1416 47.7075 78.6267 45.8535C78.6975 45.5834 78.8669 45.3022 78.8304 45.0495C78.7774 44.6838 78.5778 44.3388 78.4345 43.9697Z" fill="black"/>
<path fill-rule="evenodd" clip-rule="evenodd" d="M75.6184 84.7805C75.6631 84.554 75.7078 84.3278 75.7526 84.1013C75.7555 85.0001 76.7044 85.3364 76.9111 86.1006C76.9848 86.374 77.3891 86.4958 77.5564 86.3437C77.8294 86.0969 78.0153 86.2771 78.1694 86.3773C78.5791 86.644 78.927 86.6184 79.3453 86.374C80.5511 85.669 81.7949 85.0212 82.5057 83.7289C83.3623 83.2654 83.6129 82.3239 84.1451 81.6082C84.404 81.2603 84.4864 80.781 84.667 80.3138C84.3522 79.8553 83.8949 79.9766 83.342 80.2525C83.3954 79.992 83.3809 79.7521 83.4902 79.6043C83.6414 79.4009 83.4799 79.321 83.3942 79.2849C83.0048 79.1221 82.6022 79.0029 82.2816 78.6955C82.2033 78.6201 81.9817 78.65 81.8442 78.6914C81.5986 78.7659 81.3882 78.9229 81.1152 78.7009C81.0378 78.6384 80.7859 78.7634 80.6277 78.833C79.2679 79.4303 78.0373 80.1792 77.2321 81.5046C77.1236 81.6836 76.8792 81.8733 76.6965 82.0435C76.1726 82.5302 76.0744 83.2393 75.6689 83.7641C75.3997 84.1133 75.4585 84.4198 75.6184 84.7805Z" fill="black"/>
<path fill-rule="evenodd" clip-rule="evenodd" d="M7.05119 32.1151C7.02137 31.9068 6.99155 31.698 6.95841 31.4685C6.8764 31.5282 6.8035 31.5518 6.78445 31.5978C6.49492 32.3061 6.13415 32.9849 5.96392 33.7425C5.85705 34.2188 5.72078 34.6749 6.18179 35.046C6.49575 35.2987 6.17723 36.0243 6.88344 35.9838C7.21646 36.5185 7.74995 36.4651 8.26025 36.4286C8.3754 36.7865 8.44705 37.1352 8.59741 37.4463C8.76682 37.7967 9.30818 37.8957 9.88847 37.73C10.021 37.6923 10.149 37.5635 10.2704 37.5743C11.2106 37.6563 11.2089 37.6633 11.6045 36.9219C11.8021 36.552 12.0407 36.1987 12.1939 35.8114C12.3803 35.3393 12.6702 35.0443 13.147 34.8406C13.8549 34.5378 14.3146 33.9239 14.4368 33.1937C14.5474 32.5326 14.238 31.9262 13.6478 31.4499C13.3553 31.8318 13.0637 32.2124 12.6549 32.7459C12.6549 32.2 12.6607 31.8326 12.6533 31.4656C12.6458 31.1007 12.606 31.1753 12.0287 30.9152C11.6161 30.7292 11.0184 30.9545 10.7811 30.3821C10.3735 30.3664 9.96634 30.3514 9.55877 30.3357C8.80616 30.3059 8.13847 30.3879 7.78764 31.2246C7.64847 31.5559 7.31504 31.8061 7.05119 32.1151Z" fill="black"/>
<path fill-rule="evenodd" clip-rule="evenodd" d="M118.417 37.6033C119.308 37.4103 119.621 36.7783 119.702 36.2228C119.806 35.5125 120.047 34.8162 119.989 34.0652C119.915 33.0931 119.92 32.1069 119.993 31.1348C120.028 30.663 119.725 30.3138 119.732 29.8727C119.734 29.758 119.575 29.5359 119.499 29.5405C118.918 29.5736 118.641 28.9441 118.032 28.9403C117.628 28.9383 117.226 28.5597 116.773 28.3228C116.326 28.7693 115.377 28.2171 115.015 29.2017C115.252 29.8934 114.661 30.501 114.461 31.2097C114.434 31.3087 114.33 31.397 114.329 31.4906C114.319 32.6068 114.323 33.7227 114.323 34.9351C114.504 34.7748 114.582 34.7056 114.776 34.5329C114.715 34.7951 114.727 34.9959 114.637 35.0639C114.542 35.1368 114.341 35.056 114.206 35.1012C114.145 35.1215 114.112 35.2834 114.106 35.3836C114.102 35.4296 114.202 35.5311 114.239 35.5236C114.512 35.4702 114.782 35.3957 115.077 35.3219C115.279 35.7585 115.494 36.2245 115.655 36.5728C115.962 36.55 116.146 36.5359 116.33 36.5223C116.008 36.847 116.378 36.9638 116.512 37.1635C116.648 37.366 116.748 37.593 116.856 37.7947C117.567 37.7177 117.832 37.2596 118.022 36.6528C118.156 36.9775 118.278 37.2687 118.417 37.6033Z" fill="black"/>
<path fill-rule="evenodd" clip-rule="evenodd" d="M35.2654 89.5501C35.8498 89.5335 36.4028 89.3757 36.6853 90.0235C37.1625 89.3948 37.2188 88.9487 36.7329 88.4492C36.3974 88.1045 36.1762 87.6742 35.7488 87.3764C35.3748 87.1154 35.2372 86.5385 34.915 86.1711C34.6673 85.8886 34.2954 85.7146 33.9785 85.493C33.8795 85.5895 33.7726 85.6947 33.604 85.86C33.783 85.9872 33.9586 86.1122 34.1346 86.2369C34.1152 86.2821 34.0953 86.3272 34.0758 86.3724C33.8182 86.3318 33.561 86.2912 33.2714 86.2456C33.1944 86.3612 33.1049 86.6577 32.9132 86.7576C31.7613 87.3573 31.0261 88.3585 30.3261 89.3861C30.0962 89.7232 30.0171 90.1594 29.8323 90.5326C29.3763 91.455 29.2587 91.6253 29.3974 92.4636C29.4977 93.0696 29.6082 93.7157 30.0842 94.2095C30.2722 94.4041 30.4727 94.6854 30.4826 94.9347C30.5075 95.5643 30.8533 95.665 31.362 95.6327C31.504 95.6235 31.6544 95.6418 31.7927 95.679C32.68 95.9176 32.7715 95.8928 33.2139 95.2127C33.8691 94.2057 34.1823 93.0543 34.5633 91.9351C34.8326 91.1444 35.038 90.3313 35.2654 89.5501Z" fill="black"/>
<path fill-rule="evenodd" clip-rule="evenodd" d="M49.6301 77.1573C50.2576 76.801 50.893 76.4891 51.4045 75.9735C52.3576 75.0109 53.3807 74.1091 54.26 73.0836C55.1845 72.0054 56.1633 70.9426 56.7212 69.6784C56.6624 69.1793 56.0121 69.7095 55.9997 69.1205C55.9959 68.9523 55.5838 68.79 55.3552 68.6305C54.7877 68.2345 54.4708 68.1683 54.0575 68.6081C53.6495 69.0426 53.1777 69.1984 52.6438 69.3115C51.8191 69.4862 51.25 70.1196 50.5442 70.5093C49.7891 70.926 49.2511 71.597 48.6376 72.1798C48.3199 72.4813 47.9252 72.7129 47.6523 73.0467C47.3776 73.3826 47.1254 73.7865 47.0281 74.1994C46.9692 74.4509 47.1581 74.8303 47.3503 75.0544C47.5876 75.3306 47.6999 75.7295 48.1153 75.8633C48.3556 75.9403 48.3216 76.2087 48.3684 76.4299C48.4223 76.6838 48.4931 76.9928 48.9338 76.6739C49.242 76.4515 49.5013 76.7671 49.6301 77.1573Z" fill="black"/>
<path fill-rule="evenodd" clip-rule="evenodd" d="M4.15304 70.6239C5.44038 70.0937 5.99375 69.1079 6.54381 68.1498C7.02718 67.3078 7.46789 66.4309 7.82742 65.5292C8.1857 64.6287 8.81073 63.7755 8.53197 62.6422C7.71765 63.2097 7.78517 64.2944 7.00316 65.0197C7.14647 63.8724 7.74168 62.986 8.03866 61.7773C7.62777 62.0027 7.47866 62.0843 7.29641 62.1841C7.2612 61.9873 7.22434 61.7811 7.18789 61.5756C6.84742 61.511 6.5115 61.4472 6.1147 61.3718C6.00949 61.54 5.87156 61.7885 5.70754 62.0188C5.06801 62.9147 5.06428 62.9106 3.90286 63.3236C3.77322 63.3699 3.65186 63.4453 3.53422 63.5199C2.63458 64.0882 1.8157 64.7285 1.32073 65.7164C1.13765 66.0817 0.888305 66.7527 0.899488 67.1417C0.901974 67.2328 0.825761 67.3397 0.759489 67.4167C0.590494 67.6126 0.666708 67.7795 0.8415 67.8785C1.3489 68.1647 1.56884 68.7281 2.01949 69.0652C2.21168 69.2089 2.24606 69.4003 2.28085 69.6376C2.3289 69.9607 2.96262 70.3795 3.25754 70.3115C3.4402 70.2693 3.55825 69.9338 3.80718 70.1811C3.93765 70.3111 4.03706 70.4727 4.15304 70.6239Z" fill="black"/>
<path fill-rule="evenodd" clip-rule="evenodd" d="M40.7336 44.2991C40.9308 44.3318 41.1374 44.3657 41.4228 44.413C41.3102 44.6242 41.2298 44.7741 41.1457 44.9315C41.6821 45.4679 42.2405 46.0263 42.8162 46.6024C42.909 46.6024 43.0225 46.5854 43.1293 46.6049C44.3964 46.8393 45.2401 46.1203 45.9438 45.2534C46.4935 44.5762 46.9661 43.8302 47.3339 43.0163C47.5634 42.508 47.7684 42.04 47.6044 41.3495C47.22 42.1945 46.8774 42.9467 46.5349 43.6993C46.474 43.6794 46.4131 43.6599 46.3518 43.6401C46.3796 43.4967 46.3837 43.3431 46.4392 43.2114C46.6683 42.6671 46.9288 42.1353 47.1446 41.5864C47.2403 41.3433 47.4453 41.0405 46.923 40.9275C46.7619 40.8927 46.6674 40.5451 46.5444 40.3393C46.4367 40.1587 46.3324 39.976 46.247 39.8302C45.7189 39.7818 45.714 40.2436 45.3847 40.4341C45.4613 40.1434 45.5379 39.8526 45.639 39.4699C45.47 39.3361 45.2442 39.1572 45.0185 38.9778C44.876 39.1195 44.6871 39.3452 44.5119 38.9289C44.3218 38.4791 44.041 38.3039 43.5858 38.5992C43.5444 38.6262 43.4586 38.6469 43.4313 38.6245C42.904 38.19 42.5934 38.6228 42.3494 38.955C41.767 39.7491 41.4928 40.7025 41.1441 41.6096C41.0621 41.8225 40.8835 42.3225 41.4841 42.3465C41.5181 42.3477 41.5442 42.5346 41.5736 42.6348C41.4485 42.665 41.2563 42.762 41.2087 42.7139C40.8719 42.3763 40.6905 42.817 40.7237 42.8945C40.9262 43.3704 40.4569 43.8302 40.7336 44.2991Z" fill="black"/>
<path fill-rule="evenodd" clip-rule="evenodd" d="M44.8242 20.1945C44.6917 20.327 44.5587 20.46 44.357 20.6613C44.3201 20.3419 44.2895 20.0785 44.2559 19.7911C43.7912 19.6937 43.312 19.5711 42.8253 19.499C42.5312 19.4556 42.2205 19.4568 41.9273 19.5019C41.7036 19.5367 41.8792 19.9534 41.4621 19.9899C41.1925 20.0135 40.9854 20.4716 40.7936 20.7905C40.6379 21.0494 40.8711 21.6098 40.2796 21.5763C40.2593 21.9428 40.239 22.3098 40.2179 22.6764C40.2162 22.712 40.2079 22.7472 40.2026 22.7828L38.5242 24.4612C38.3444 24.4612 38.1539 24.438 37.9721 24.4666C37.6917 24.5117 37.3897 24.7896 37.5334 24.9619C37.8532 25.3451 37.28 25.6098 37.5073 25.9225C38.3809 26.1843 38.6563 26.2132 39.3671 26.089C39.189 26.4738 39.0341 26.8093 38.8394 27.2309C38.9529 27.3399 39.1024 27.6054 39.2499 27.6046C40.1806 27.5975 41.1602 27.8336 41.9898 27.173C42.2147 26.9936 42.4865 26.8532 42.6613 26.6341C43.0601 26.1346 43.4172 25.6015 43.7813 25.0746C43.9606 24.8149 44.1139 24.5366 44.2862 24.2715C44.5529 23.861 44.4738 23.2695 44.963 22.9759C44.8888 22.478 45.1697 22.1015 45.349 21.6719C45.593 21.0883 45.4418 20.53 44.8242 20.1945Z" fill="black"/>
<path fill-rule="evenodd" clip-rule="evenodd" d="M79.6863 3.45007C79.246 3.45007 78.9449 3.44965 78.6442 3.45007C78.2411 3.4509 77.805 3.38338 77.7126 3.96575C77.7027 4.03036 77.5519 4.12936 77.4798 4.119C77.0027 4.04817 76.8788 4.49924 76.5868 4.69764C75.7945 5.2361 75.6777 6.12291 75.4797 6.94303C75.3666 7.41066 75.5178 7.74616 76.05 8.06468C76.6473 8.42214 77.3949 8.64415 77.805 9.29362C78.167 9.30066 78.4632 9.86687 78.8861 9.41374C78.9474 9.34829 79.0832 9.32634 79.1839 9.328C80.6096 9.35533 81.5017 8.53687 82.2469 7.44545C82.6251 6.89208 83.0985 6.39752 83.2468 5.71616C83.3077 5.43658 83.3433 5.14995 83.3632 4.86457C83.3702 4.77096 83.3151 4.60859 83.2497 4.58498C82.676 4.37995 82.2589 3.89078 81.7026 3.69155C81.0167 3.44634 80.2832 3.37261 79.6863 3.45007Z" fill="black"/>
<path fill-rule="evenodd" clip-rule="evenodd" d="M81.4974 58.2433C81.3321 58.503 81.2107 58.6944 80.9746 59.0659C80.9216 58.6725 80.9013 58.5378 80.886 58.4028C80.8363 57.9551 80.8371 57.9559 80.2713 57.8983C80.2005 57.8909 80.0916 57.9004 80.0663 57.8602C79.8082 57.4535 79.4052 57.3396 78.9985 57.4622C78.5375 57.6009 78.0425 57.7749 77.6838 58.0772C76.2842 59.2569 75.4608 60.8379 74.8213 62.5154C74.7127 62.8016 74.8059 63.1645 74.8059 63.4875C74.9737 63.4689 75.1054 63.4544 75.2375 63.4395C75.2089 63.8446 75.3005 64.1449 75.7743 64.2406C75.9164 64.2696 76.1107 64.4816 76.1247 64.6245C76.1724 65.1125 76.6736 64.8747 76.8484 65.1286C77.1275 64.6842 77.608 65.2222 77.922 64.9045C78.2227 64.6005 78.6344 64.3661 78.8332 64.009C79.271 63.2225 79.6902 62.404 79.9466 61.5474C80.0775 61.1092 80.2717 60.818 80.6093 60.6192C81.1573 60.2974 81.5831 59.8894 81.8507 59.3095C82.0739 58.8253 82.0834 58.8298 81.4974 58.2433Z" fill="black"/>
<path fill-rule="evenodd" clip-rule="evenodd" d="M60.3261 45.1052C60.3261 44.993 60.353 44.8368 60.3166 44.6968C60.2922 44.6032 60.1319 44.5394 60.1178 44.4495C60.1025 44.3514 60.2176 44.2387 60.2188 44.1318C60.2197 44.037 60.0863 43.9206 60.1124 43.8506C60.16 43.7218 60.2669 43.6025 60.3767 43.513C60.4496 43.4534 60.5709 43.4525 60.7209 43.412C60.6504 43.6567 60.5937 43.8539 60.5365 44.0515C60.9354 43.8083 61.3786 43.6145 61.1835 43.0284C61.0187 43.0988 60.8567 43.1688 60.6558 43.255C60.5912 42.5496 61.2452 42.9166 61.4971 42.5827C61.1284 42.6262 60.8828 42.3723 60.5121 42.4216C60.3402 42.4444 60.1165 42.0791 59.8531 41.8297C59.4874 42.1283 59.0773 42.4626 58.5977 42.854C58.5509 42.5678 58.5173 42.364 58.4767 42.1159C57.9345 42.0111 57.3787 41.9038 56.8166 41.7953C56.5279 42.164 56.3022 42.5003 56.0271 42.7898C55.7885 43.04 55.4605 43.2069 55.2306 43.4633C54.582 44.1873 54.2879 45.1015 54.0212 46.0057C53.9255 46.3292 53.8203 46.8411 54.4387 46.9277C54.4358 47.5217 55.062 47.6103 55.3445 47.9868C55.6987 48.4582 56.3249 48.5394 57.0009 48.2664C58.0132 47.8576 58.6784 47.0673 59.325 46.2977C59.6485 45.9121 60.0117 45.5484 60.3261 45.1052Z" fill="black"/>
<path fill-rule="evenodd" clip-rule="evenodd" d="M41.7102 59.7541C41.528 59.8163 41.3519 59.8759 41.1502 59.9447C41.1092 58.9945 42.0913 58.7282 42.228 57.8534C42.0292 57.9412 41.8672 57.9785 41.75 58.0717C41.5619 58.2216 41.4037 58.408 41.1693 58.6424C41.2492 58.1661 41.3022 58.0567 41.574 57.7308C40.98 57.0125 40.98 57.0125 40.2788 57.0101C39.8931 57.4446 39.5638 58.017 39.0697 58.3185C38.5242 58.6519 38.3635 59.2211 37.9613 59.629C37.5769 60.0196 37.3218 60.5515 37.067 61.0506C36.927 61.324 36.8082 61.6731 36.8537 61.9606C36.9117 62.3238 37.0666 62.8577 37.3234 62.9609C37.7459 63.1311 37.6515 63.4298 37.7844 63.6866C37.9667 64.0374 38.216 64.3787 38.6733 64.4541C38.9405 64.498 39.2586 64.7018 39.4545 64.6135C39.9312 64.3986 40.4237 64.1248 40.7762 63.7491C41.4414 63.04 42.0362 62.2601 42.6053 61.4698C42.7482 61.2718 42.6824 60.9238 42.7246 60.5324C42.5349 60.6857 42.4595 60.7462 42.2996 60.875C42.3825 60.2988 41.8788 60.1012 41.7102 59.7541Z" fill="black"/>
<path fill-rule="evenodd" clip-rule="evenodd" d="M47.6491 101.183C47.9577 101.014 48.1064 100.932 48.2505 100.853C48.5044 101.77 48.5674 101.818 49.3175 101.487C49.1195 101.948 48.9609 102.317 48.7881 102.718C48.9841 102.831 49.1845 102.948 49.3871 103.066C49.7532 102.7 50.1248 102.328 50.5307 101.922C50.7751 102.473 50.1024 102.727 50.1687 103.258C50.7722 103.342 51.1222 102.932 51.4697 102.554C51.6594 102.348 51.7621 102.06 51.9576 101.861C52.8291 100.976 53.6119 100.02 54.3417 99.0177C54.4072 98.9278 54.4979 98.8558 54.5791 98.7779C55.019 98.3583 55.48 97.9528 55.5127 97.269C55.0736 97.0001 54.8404 97.4143 54.5418 97.6707C54.2382 97.1683 54.9407 97.1012 54.9092 96.7309C54.8823 96.2844 54.0328 96.8539 54.2486 96.1241H53.0254C52.6754 96.3706 52.3204 96.6145 51.9725 96.8676C51.6233 97.1215 51.3926 97.4864 50.9652 97.6931C50.5502 97.8944 50.2751 98.3691 49.9098 98.6909C49.6716 98.9009 49.5204 99.1896 49.1398 99.284C48.8644 99.352 48.7173 99.7699 48.299 99.7161C48.1826 99.7007 47.9726 99.9111 47.9133 100.061C47.8003 100.346 47.7655 100.661 47.6491 101.183Z" fill="black"/>
<path fill-rule="evenodd" clip-rule="evenodd" d="M55.4105 25.6333C55.022 25.659 54.7536 25.4581 54.3982 25.7145C54.5788 25.7766 54.7097 25.8217 54.8526 25.871C54.7192 26.3237 54.5709 26.7736 54.462 27.2325C54.4343 27.3501 54.496 27.5825 54.5776 27.6169C55.0307 27.8082 55.1678 28.2958 55.5207 28.5629C55.6769 28.6814 55.9109 28.7199 56.1151 28.7431C56.2174 28.7543 56.3379 28.5998 56.4402 28.6106C56.5649 28.6238 56.6792 28.7327 56.8105 28.8073C57.0044 28.1222 56.9944 28.0945 57.7578 27.8343C58.2147 27.6786 58.3095 27.2296 58.6334 26.9471C58.7059 27.1016 58.7759 27.2507 58.8542 27.4181C58.9681 27.2988 59.1599 27.1903 59.1595 27.0826C59.1537 25.7368 59.1549 25.7066 59.7692 24.9001C60.1154 25.5086 59.4519 25.8607 59.4159 26.4559C59.5803 26.4302 59.8259 26.4493 59.8545 26.3793C60.1432 25.6776 60.5831 25.0149 60.132 24.1732C59.992 23.9119 59.9667 23.7748 59.6524 23.7694C59.4585 23.7665 59.2502 23.6526 59.0774 23.5432C58.6297 23.2603 58.1985 22.9522 57.7201 22.6262C57.6108 22.7894 57.5097 22.9406 57.5341 22.9037C57.1568 23.1667 56.7633 22.4584 56.7003 23.1969C56.6821 23.4065 56.2137 22.9066 56.2137 23.4554C56.2137 23.6675 55.8239 23.88 55.628 24.0759C55.698 24.2573 55.7643 24.4304 55.8309 24.6036C55.7754 24.6421 55.7199 24.6806 55.664 24.7191C55.5659 24.5323 55.4677 24.3455 55.3438 24.1107C55.1421 24.4536 55.0249 24.652 54.8712 24.9126C55.0382 25.1354 55.2241 25.3843 55.4105 25.6333Z" fill="black"/>
<path fill-rule="evenodd" clip-rule="evenodd" d="M93.38 59.3741C93.6402 59.0461 93.846 58.7864 94.0747 58.4972C94.191 58.7354 94.2652 58.8866 94.3617 59.0838C94.7962 58.88 95.0886 58.5436 95.3376 58.1928C95.8876 57.417 96.313 56.5613 96.8705 55.7842C97.2135 55.3067 97.2338 54.7065 97.0983 54.0852C96.5835 53.9808 96.472 54.5859 96.0429 54.7388V53.6391C95.2319 53.5248 94.4503 53.4146 93.7338 53.3139C92.982 53.9891 92.487 54.7185 92.1362 55.561C91.9357 56.041 91.5228 56.4014 91.3973 56.9506C91.3476 57.1677 91.6259 57.4597 91.2833 57.6212C91.2776 57.6237 91.3852 57.888 91.3886 57.8867C91.9477 57.685 92.1358 58.496 92.6738 58.3659C92.7086 58.3572 92.8039 58.5652 92.8573 58.6791C92.9165 58.8042 92.9431 58.9475 93.016 59.0626C93.0698 59.1488 93.1742 59.2026 93.38 59.3741Z" fill="black"/>
<path fill-rule="evenodd" clip-rule="evenodd" d="M68.3603 73.0359C68.1988 73.4095 68.0812 73.6816 67.913 74.0697C67.8061 73.7868 67.7569 73.6572 67.7047 73.5197C67.6541 73.5507 67.5713 73.5723 67.5605 73.6129C67.4586 74.0001 67.2747 74.3311 66.9951 74.6252C66.8278 74.8012 66.7069 75.0278 66.593 75.246C66.3921 75.6325 66.1071 75.8963 65.6457 75.9784C65.5732 75.8317 65.4986 75.6801 65.4638 75.6097C65.2501 75.7696 65.0177 75.944 64.8446 76.0736C64.8446 76.2145 64.8297 76.2749 64.8467 76.2861C65.0513 76.4191 65.2605 76.5446 65.4514 76.6614C65.3959 76.97 65.3462 77.2495 65.2712 77.6683C65.6096 77.5039 65.7948 77.4136 66.0615 77.2835C66.2094 77.5809 66.3577 77.88 66.5172 78.2014C66.6688 78.2184 66.8464 78.2391 67.0639 78.2635V78.7655C67.6314 79.1905 68.0957 79.1333 68.5877 78.6847C69.1237 78.196 69.728 77.783 70.2748 77.2011C70.0449 77.0491 69.8229 76.9024 69.5793 76.7417C69.7036 76.2861 69.9269 75.8794 70.2487 75.4817C70.5705 75.0837 70.747 74.5676 70.9785 74.1194C70.6476 73.7114 70.3862 74.0134 70.0826 74.141C70.0698 74.0271 70.0172 73.9057 70.0532 73.8237C70.2798 73.3142 70.1816 73.0624 69.7015 73.0404C69.2509 73.0193 68.7986 73.0359 68.3603 73.0359Z" fill="black"/>
<path fill-rule="evenodd" clip-rule="evenodd" d="M100.51 77.5025C100.321 77.7825 100.166 78.0115 99.973 78.2969C99.9229 78.1408 99.8541 78.0401 99.8699 77.956C99.9469 77.5481 100.047 77.1446 100.151 76.6844H99.4946C99.4378 76.8025 99.3683 76.947 99.2307 77.2333V76.3104C99.1023 76.2653 98.993 76.2516 98.9164 76.1949C98.7412 76.0644 98.4636 75.7682 98.4351 75.7914C98.148 76.0275 97.7935 75.885 97.5151 75.9919C97.1001 76.151 96.7058 76.4285 96.7112 76.9578C96.7128 77.116 96.9224 77.2921 96.8909 77.425C96.8652 77.5331 96.5753 77.5572 96.4887 77.6794C96.4179 77.7792 96.4121 78.0468 96.485 78.1052C96.7778 78.3388 96.7132 78.6411 96.6933 78.9244C96.6681 79.2782 96.823 79.4931 97.137 79.5822C97.4725 79.6775 97.5507 79.8924 97.6212 80.2134C97.721 80.667 98.032 80.9685 98.5581 80.9462C98.7399 80.9387 98.9284 80.9428 99.1048 80.9814C99.5538 81.0795 100.12 80.9718 100.26 80.6426C100.601 79.839 101.096 79.0798 101.004 78.1341C100.968 77.7655 100.746 77.6607 100.51 77.5025Z" fill="black"/>
<path fill-rule="evenodd" clip-rule="evenodd" d="M64.2849 57.1801C64.0041 57.2626 63.7108 57.3483 63.3505 57.4539C63.1976 57.0898 63.1525 56.7402 63.4747 56.4151C63.0787 56.0552 62.8153 56.5978 62.4272 56.5389C62.3912 56.343 62.3526 56.1368 62.3154 55.9346C62.0113 55.6091 61.7371 56.2097 61.3697 55.9263C60.9941 55.6364 60.8992 56.2623 60.5799 56.3339C60.4005 56.3741 60.2328 56.5609 60.1048 56.7183C59.6806 57.2385 59.6144 57.9746 59.0432 58.4289C58.9065 58.5375 58.9794 58.9107 58.9487 59.2424C59.5821 58.9314 59.6206 59.9362 60.2307 59.6981C60.4183 60.0017 60.241 60.5521 60.9274 60.618C60.9999 60.4946 61.1134 60.3011 61.2749 60.0253C61.4124 60.3123 61.4791 60.4515 61.5474 60.5948C61.9318 60.6859 62.1079 60.3546 62.2342 60.1437C62.6538 59.4417 63.1972 58.9045 63.9001 58.4845C64.3325 58.226 64.5699 57.8047 64.2849 57.1801Z" fill="black"/>
<path fill-rule="evenodd" clip-rule="evenodd" d="M69.781 27.1686C70.3141 27.5861 70.7072 27.8942 71.2146 28.2923H72.1635C72.533 27.758 72.6531 27.0551 73.1978 26.6139C73.2549 25.87 73.7694 25.409 74.2163 24.8905C74.3584 24.7252 74.3277 24.4112 74.3882 24.1039C74.225 24.0583 74.0634 24.0616 73.979 23.9825C73.112 23.1719 72.2952 23.6276 71.6043 24.1805C71.0145 24.6523 70.5166 25.2765 70.0987 25.9119C69.8618 26.2718 69.868 26.7916 69.781 27.1686Z" fill="black"/>
</svg>
